<?xml version="1.0" standalone="no"?>
<!DOCTYPE svg PUBLIC "-//W3C//DTD SVG 20010904//EN"
 "http://www.w3.org/TR/2001/REC-SVG-20010904/DTD/svg10.dtd">
<svg version="1.0" xmlns="http://www.w3.org/2000/svg"
 width="523.000000pt" height="533.000000pt" viewBox="0 0 523.000000 533.000000"
 preserveAspectRatio="xMidYMid meet">

<g transform="translate(0.000000,533.000000) scale(0.100000,-0.100000)"
fill="#000000" stroke="none">
<path d="M2590 4217 c14 -8 27 -12 30 -10 7 6 -23 23 -40 23 -8 0 -4 -6 10
-13z"/>
<path d="M2499 4206 c9 -11 7 -15 -8 -19 -13 -3 -21 1 -24 12 -3 10 -5 7 -6
-8 -1 -19 -4 -22 -12 -14 -8 8 -20 9 -37 2 -13 -5 -33 -7 -43 -4 -10 4 -24 3
-31 -2 -7 -4 -20 -8 -28 -8 -8 0 -14 -5 -13 -10 1 -6 -16 -10 -40 -8 -22 1
-46 -2 -52 -7 -6 -5 -22 -11 -35 -13 -45 -7 -100 -37 -100 -53 0 -12 -3 -14
-13 -6 -8 7 -17 6 -30 -3 -10 -7 -27 -10 -39 -7 -14 3 -19 1 -14 -6 9 -15 1
-15 -23 0 -11 6 -26 8 -37 3 -11 -5 -21 -8 -24 -8 -3 0 -13 -8 -22 -18 -14
-15 -15 -19 -4 -19 8 0 16 6 19 13 2 6 7 9 11 6 11 -11 -5 -39 -23 -39 -9 0
-22 -5 -29 -12 -9 -9 -12 -9 -12 0 0 7 -5 12 -11 12 -6 0 -9 -6 -7 -12 5 -15
-3 -24 -50 -57 -26 -18 -31 -26 -20 -33 10 -8 10 -9 -2 -5 -29 7 -20 33 19 57
21 14 37 28 34 32 -2 4 -14 -1 -25 -12 -12 -11 -28 -20 -35 -20 -7 0 -13 -4
-13 -10 0 -5 -7 -10 -15 -10 -8 0 -15 -7 -15 -16 0 -8 -4 -12 -10 -9 -5 3 -10
1 -10 -4 0 -6 -3 -10 -8 -8 -7 2 -23 -9 -63 -45 -10 -10 -24 -18 -30 -18 -8 0
-8 -5 1 -15 10 -12 10 -15 -4 -15 -9 0 -16 -4 -16 -10 0 -5 -6 -10 -14 -10
-15 0 -30 -27 -27 -49 2 -9 -3 -12 -14 -8 -9 4 -18 1 -21 -8 -4 -8 -13 -15
-21 -15 -8 0 -13 -6 -10 -12 2 -7 10 -12 16 -11 27 7 7 -14 -31 -32 -29 -14
-45 -28 -48 -45 -6 -23 -7 -24 -17 -6 -5 10 -13 14 -16 9 -3 -5 3 -14 14 -21
17 -11 21 -9 30 12 6 13 20 27 31 29 15 4 17 2 9 -7 -6 -7 -9 -16 -6 -19 3 -4
2 -5 -2 -2 -3 3 -12 -4 -20 -15 -8 -11 -22 -20 -32 -20 -24 0 -55 -35 -48 -54
4 -10 1 -13 -9 -9 -7 3 -14 0 -14 -6 0 -6 7 -11 15 -11 8 0 15 -5 15 -11 0 -6
-8 -8 -19 -4 -11 3 -24 -1 -32 -11 -11 -13 -11 -18 -1 -21 6 -3 12 -12 12 -20
0 -13 -2 -13 -16 -2 -15 12 -16 11 -10 -9 6 -17 4 -21 -7 -16 -9 3 -16 -3 -20
-15 -5 -22 7 -29 18 -11 4 6 11 8 16 5 10 -7 -14 -35 -30 -35 -6 0 -11 -6 -11
-12 0 -9 -4 -8 -10 2 -6 10 -10 11 -10 3 0 -20 4 -28 13 -26 4 2 7 -2 7 -8 0
-6 -9 -9 -20 -6 -11 3 -18 1 -14 -4 3 -5 12 -9 20 -9 12 0 12 -2 2 -14 -7 -8
-15 -10 -17 -4 -2 5 -10 0 -18 -11 -8 -12 -11 -26 -8 -31 4 -6 1 -18 -6 -26
-10 -12 -9 -13 5 -8 9 3 16 2 16 -4 0 -15 -26 -22 -38 -10 -8 8 -11 5 -9 -11
1 -16 6 -20 20 -15 16 5 17 3 8 -15 -7 -12 -15 -21 -20 -21 -11 0 -32 -50 -26
-61 4 -5 1 -9 -6 -9 -8 0 -7 -5 2 -17 9 -11 10 -14 2 -10 -8 5 -14 -2 -19 -20
-3 -15 -7 -34 -10 -40 -8 -29 14 -10 24 20 6 17 10 23 9 12 -1 -11 2 -26 6
-32 10 -16 0 -33 -19 -33 -8 0 -19 -12 -24 -26 -12 -32 -13 -115 -1 -96 7 11
10 10 15 -3 8 -21 -1 -36 -17 -29 -7 2 -18 -5 -25 -16 -10 -16 -10 -20 0 -20
10 0 13 -28 13 -108 0 -96 2 -107 18 -104 31 5 18 -26 -14 -33 l-31 -7 23 -12
c19 -9 25 -9 27 1 6 22 17 14 18 -12 1 -14 -4 -25 -11 -25 -18 0 -27 -30 -14
-46 6 -8 22 -14 36 -14 17 0 22 -4 16 -12 -12 -20 -13 -42 -1 -49 7 -4 2 -11
-11 -18 -26 -14 -18 -34 10 -26 16 5 19 2 18 -22 -1 -17 -3 -21 -6 -10 -6 22
-9 21 -33 -3 -11 -11 -15 -22 -10 -25 6 -4 10 0 10 7 0 9 3 9 8 2 4 -6 16 -14
27 -18 l20 -8 -20 -8 c-18 -8 -17 -9 8 -9 21 -1 27 -6 27 -23 0 -21 0 -21 -16
-2 -15 18 -15 18 -9 -11 4 -16 18 -40 33 -53 17 -15 21 -22 10 -18 -29 9 -21
-21 9 -36 14 -7 27 -21 29 -31 1 -9 -2 -15 -7 -11 -5 3 -7 10 -4 15 4 5 0 9
-8 9 -8 0 -18 -7 -21 -16 -9 -23 -7 -31 3 -15 6 9 16 -3 37 -45 15 -33 27 -62
26 -66 -1 -5 3 -8 9 -8 6 0 9 7 5 15 -3 8 -1 15 5 15 6 0 9 -14 6 -35 -4 -27
-2 -33 7 -26 7 6 17 6 26 1 13 -8 13 -10 -1 -10 -21 0 -33 -30 -19 -44 8 -8 9
-6 5 7 -10 26 10 21 24 -6 10 -18 19 -23 38 -19 18 3 24 1 19 -7 -4 -6 -12 -9
-17 -6 -5 4 -9 1 -9 -4 0 -6 10 -11 23 -11 16 0 19 -3 8 -9 -11 -7 -10 -14 6
-37 11 -16 18 -35 16 -41 -3 -7 3 -13 12 -13 9 0 22 -13 28 -30 7 -18 17 -28
24 -26 8 3 13 -2 13 -13 0 -11 -5 -21 -12 -23 -7 -3 -6 -7 5 -11 10 -4 17 -2
17 6 0 7 11 13 24 13 17 1 23 -2 19 -12 -3 -9 2 -14 17 -14 19 0 20 -2 10 -15
-10 -12 -9 -15 8 -15 13 0 22 -9 26 -25 4 -14 12 -25 18 -25 6 0 20 -7 30 -16
13 -13 21 -14 31 -6 10 9 14 8 14 -3 0 -8 -4 -15 -9 -15 -4 0 -8 -3 -8 -8 0
-12 62 -35 94 -35 17 0 25 -2 19 -4 -19 -7 -15 -31 6 -43 22 -11 37 2 25 23
-5 8 -2 7 10 -2 13 -11 14 -16 4 -23 -10 -6 -10 -10 2 -18 20 -13 30 -12 30 3
0 6 11 12 24 12 15 0 22 -5 19 -12 -3 -7 2 -13 11 -13 9 0 16 -5 16 -11 0 -7
-7 -8 -17 -4 -32 13 -47 10 -51 -10 -2 -11 0 -16 5 -10 4 6 14 10 21 9 6 -1
17 -2 23 -3 5 0 7 -5 4 -11 -4 -6 7 -10 24 -10 17 0 31 4 31 10 0 6 11 5 27
-3 21 -9 27 -9 31 1 2 7 8 10 13 6 5 -3 2 -12 -6 -21 -23 -23 -1 -47 29 -31
11 6 18 7 14 3 -13 -13 11 -33 32 -28 11 3 20 0 20 -6 0 -6 10 -11 23 -11 18
0 19 2 7 10 -10 7 -11 10 -2 10 7 0 15 -7 18 -15 4 -8 12 -15 20 -15 8 0 14
-4 14 -8 0 -4 9 -8 20 -9 13 -1 20 4 20 15 0 15 2 15 10 2 6 -9 6 -18 0 -24
-6 -6 -10 -14 -10 -20 0 -5 7 -1 16 10 11 14 17 16 21 6 4 -10 8 -9 18 5 11
14 16 15 36 5 l24 -12 -25 5 c-22 5 -23 5 -7 -5 15 -9 22 -8 38 6 19 17 28 7
9 -12 -7 -7 -1 -9 19 -6 22 3 28 8 24 21 -4 13 -3 13 5 2 5 -7 15 -10 22 -6 9
6 9 3 0 -15 -16 -29 -8 -35 15 -10 10 11 28 20 39 19 12 0 15 -3 9 -6 -24 -9
-13 -23 18 -23 26 0 29 2 20 14 -10 12 -7 14 22 12 19 -2 40 -7 47 -11 8 -5
11 -4 7 3 -5 6 1 8 14 5 16 -4 17 -8 7 -14 -9 -6 -7 -9 10 -9 12 0 22 5 22 10
0 6 7 10 16 10 8 0 12 -5 9 -10 -3 -6 -2 -10 4 -10 17 0 61 23 61 32 0 4 18 8
41 8 23 0 55 6 72 14 38 17 117 28 117 16 0 -5 -6 -10 -12 -13 -7 -2 -10 -7
-6 -11 3 -4 17 -2 30 5 14 7 18 14 10 17 -17 5 -15 19 3 19 8 0 15 -7 16 -16
0 -10 2 -12 6 -3 2 6 18 12 34 12 19 0 29 5 29 14 0 8 5 18 12 22 7 5 8 3 3
-7 -8 -12 -6 -12 8 0 10 7 17 9 17 3 0 -10 7 -10 48 3 22 7 31 25 11 25 -5 0
-7 5 -4 10 9 15 25 12 25 -5 0 -8 5 -15 10 -15 6 0 10 8 10 18 0 12 2 14 8 4
5 -7 16 -10 25 -6 9 3 15 10 12 15 -8 11 33 32 51 25 8 -3 14 1 14 9 0 7 14
16 30 20 17 4 30 11 30 15 0 5 8 6 18 3 15 -6 15 -5 3 10 -12 15 -11 17 7 17
11 0 25 7 32 15 7 8 17 12 24 9 6 -3 3 1 -6 9 -16 13 -15 15 10 34 15 10 34
23 42 28 13 8 13 7 1 -8 -8 -10 -9 -17 -3 -17 12 0 25 18 29 39 2 14 21 31 36
31 5 0 5 -5 2 -10 -3 -6 3 -10 14 -10 16 0 21 6 21 26 0 14 -4 23 -10 19 -5
-3 -10 -1 -10 4 0 6 14 11 30 11 17 0 30 5 30 10 0 6 6 10 14 10 7 0 21 12 31
26 16 25 16 26 -5 19 -15 -5 -20 -4 -16 4 4 6 16 11 26 11 11 0 31 12 45 28
26 27 69 98 70 116 0 5 6 11 13 14 8 2 10 -3 6 -15 -5 -16 -4 -16 7 1 9 15 9
21 1 24 -7 2 -12 8 -12 14 0 6 6 8 14 5 16 -6 60 49 51 63 -3 6 -1 10 5 10 6
0 8 10 4 25 -6 25 10 36 19 13 3 -7 6 1 6 17 1 17 4 41 8 55 6 24 6 24 -11 7
-10 -10 -21 -15 -25 -11 -3 4 0 9 7 11 6 3 10 9 7 13 -3 5 6 7 20 4 18 -3 25
0 25 11 0 8 5 15 10 15 6 0 1 -18 -10 -41 -12 -23 -19 -43 -17 -45 6 -7 47 73
47 92 0 8 7 17 15 20 8 4 12 10 9 15 -3 6 -1 16 5 23 6 7 12 34 13 59 2 27 8
47 14 47 7 0 15 20 18 45 6 37 11 45 29 46 16 0 18 2 7 7 -14 6 -18 24 -10 45
6 18 6 33 -3 51 -6 13 -6 16 2 12 6 -4 11 -3 11 3 0 5 3 17 7 27 4 11 3 15 -5
10 -6 -3 -13 -2 -17 4 -3 5 2 10 12 10 12 0 18 8 19 25 1 14 -3 25 -10 25 -6
0 -4 5 4 10 13 9 13 12 -3 21 -15 9 -16 12 -2 25 10 11 15 36 15 80 0 43 4 64
12 64 9 0 9 3 0 12 -7 7 -12 20 -12 30 0 10 -5 17 -11 16 -6 -2 -14 3 -17 11
-2 8 0 11 5 8 5 -3 10 10 10 30 1 25 -2 32 -8 22 -7 -11 -9 -9 -9 8 0 12 5 25
10 28 14 8 13 65 -1 65 -6 0 -9 7 -6 14 4 10 1 13 -7 10 -8 -3 -16 4 -20 18
-10 38 -6 45 9 18 14 -24 14 -24 15 -3 0 12 -5 25 -10 28 -6 4 -7 12 -4 18 4
7 4 9 -1 5 -10 -9 -40 30 -30 40 3 3 10 0 15 -8 5 -8 12 -11 17 -7 4 5 2 12
-5 16 -7 4 -14 22 -14 40 -1 27 -4 31 -22 26 -12 -3 -16 -2 -9 1 7 3 9 12 6
21 -5 13 -1 15 22 9 25 -6 26 -6 11 9 -9 9 -20 13 -26 10 -5 -3 -15 -3 -22 1
-8 5 -6 10 8 15 17 7 17 8 2 8 -11 1 -18 9 -18 20 0 34 -11 50 -28 44 -15 -6
-15 -4 1 14 21 24 22 34 3 27 -9 -3 -17 3 -21 15 -4 13 -11 18 -22 14 -13 -5
-13 -3 -5 14 13 23 -7 70 -28 65 -7 -2 -19 7 -28 19 -12 17 -16 18 -24 8 -7
-10 -8 -9 -4 5 4 11 2 23 -5 26 -8 6 -8 9 1 15 7 4 13 -1 17 -14 5 -21 43 -30
43 -11 0 6 -6 10 -13 10 -7 0 -18 9 -25 20 -7 11 -21 20 -31 20 -10 0 -22 7
-25 16 -4 12 -1 14 14 9 11 -4 20 -3 20 0 0 10 -27 35 -32 29 -3 -2 -18 2 -34
11 l-29 15 43 0 c23 0 42 4 42 10 0 5 -7 7 -15 4 -8 -4 -21 -1 -29 5 -7 6 -16
8 -20 4 -8 -8 -82 67 -78 80 1 4 -3 7 -8 7 -5 0 -9 6 -7 13 1 6 -7 12 -19 11
-13 0 -21 7 -21 19 -2 16 0 17 14 5 14 -11 15 -11 11 2 -3 8 -15 14 -27 13
-11 -2 -22 3 -23 10 0 6 -2 17 -2 22 -3 25 -18 34 -46 28 -19 -3 -30 -1 -30 6
0 6 5 11 11 11 5 0 7 5 4 10 -4 7 -11 7 -18 2 -20 -15 -47 -22 -47 -12 0 6 6
10 14 10 7 0 16 9 19 20 4 16 -1 21 -21 26 -44 9 -75 28 -80 47 -4 14 -7 16
-13 6 -6 -10 -11 -6 -18 14 -6 15 -13 27 -16 27 -3 0 -4 -3 -2 -8 2 -7 -6 -12
-24 -12 -6 0 -8 9 -4 20 5 14 3 18 -8 15 -7 -3 -27 -1 -43 5 -20 8 -30 8 -32
1 -6 -17 -23 -13 -20 3 2 8 -6 22 -17 31 -19 16 -19 16 10 11 l30 -6 -25 14
c-17 10 -29 11 -37 4 -14 -11 -53 -2 -53 13 0 6 -3 8 -7 6 -13 -8 -55 12 -48
23 4 7 13 7 26 0 11 -7 19 -7 19 -1 0 5 -6 12 -12 14 -9 4 -8 6 2 6 9 1 5 6
-10 15 -27 14 -50 9 -29 -6 10 -7 8 -8 -8 -5 -20 4 -21 2 -12 -14 7 -15 6 -19
-6 -19 -8 0 -15 6 -15 14 0 8 -12 24 -26 35 -20 15 -31 18 -50 11 -19 -7 -24
-6 -24 5 0 18 -17 20 -23 3 -3 -9 -10 -7 -21 7 -12 16 -17 17 -24 7 -13 -19
-25 -17 -33 5 -7 17 -8 17 -8 1 -1 -22 -19 -24 -27 -3 -4 8 -11 12 -18 8 -6
-4 -16 -8 -22 -9 -6 -1 -27 -5 -45 -8 -24 -4 -28 -3 -14 3 18 8 19 9 3 16 -10
4 -26 4 -35 1 -15 -6 -15 -8 -3 -16 10 -7 -2 -10 -40 -10 -39 0 -51 3 -40 10
12 8 11 10 -7 10 -12 0 -24 -6 -26 -12 -4 -10 -8 -10 -15 1 -5 7 -27 14 -48
15 -22 0 -43 7 -47 14 -4 6 -13 12 -19 12 -7 0 -7 -4 1 -14z m-139 -56 c0 -5
-4 -10 -10 -10 -5 0 -10 5 -10 10 0 6 5 10 10 10 6 0 10 -4 10 -10z m540 -17
c0 -9 -3 -13 -7 -10 -3 4 -12 2 -20 -4 -18 -16 -16 -4 3 15 20 20 24 20 24 -1z
m-130 -3 c0 -5 -2 -10 -4 -10 -3 0 -8 5 -11 10 -3 6 -1 10 4 10 6 0 11 -4 11
-10z m307 4 c-3 -3 -12 -4 -19 -1 -8 3 -5 6 6 6 11 1 17 -2 13 -5z m-833 -12
c2 -4 -4 -8 -15 -8 -10 0 -19 4 -19 8 0 4 6 8 14 8 8 0 17 -4 20 -8z m43 2
c-3 -3 -12 -4 -19 -1 -8 3 -5 6 6 6 11 1 17 -2 13 -5z m-102 -24 c3 -5 2 -10
-4 -10 -5 0 -13 5 -16 10 -3 6 -2 10 4 10 5 0 13 -4 16 -10z m-30 -20 c3 -6
-1 -7 -9 -4 -18 7 -21 14 -7 14 6 0 13 -4 16 -10z m-55 -4 c0 -3 -4 -8 -10
-11 -5 -3 -10 -1 -10 4 0 6 5 11 10 11 6 0 10 -2 10 -4z m-155 -36 c3 -5 1
-10 -4 -10 -6 0 -11 5 -11 10 0 6 2 10 4 10 3 0 8 -4 11 -10z m-28 -42 c-3 -7
-5 -2 -5 12 0 14 2 19 5 13 2 -7 2 -19 0 -25z m-62 -48 c3 -5 1 -10 -4 -10 -6
0 -11 5 -11 10 0 6 2 10 4 10 3 0 8 -4 11 -10z m-71 -47 c-5 -5 -12 -12 -16
-18 -4 -6 -8 -2 -8 8 0 9 7 17 17 17 9 0 12 -3 7 -7z m1776 -23 c0 -5 -4 -10
-10 -10 -5 0 -10 5 -10 10 0 6 5 10 10 10 6 0 10 -4 10 -10z m-1904 -39 c-7
-11 -56 -21 -56 -10 0 4 8 10 18 12 30 8 43 7 38 -2z m-119 -98 c-9 -2 -14 -9
-11 -15 4 -7 2 -8 -5 -4 -15 10 -4 26 17 25 15 -1 15 -2 -1 -6z m-7 -63 c-25
-24 -35 -28 -41 -18 -5 7 -9 18 -9 23 0 6 4 4 9 -4 7 -11 14 -9 37 12 15 15
30 24 32 22 3 -2 -10 -18 -28 -35z m1223 30 c18 0 27 -5 27 -16 0 -11 6 -14
20 -9 12 4 20 2 20 -5 0 -8 13 -11 35 -8 19 2 35 2 35 -2 0 -3 21 -6 47 -7 25
-1 51 -7 56 -12 6 -6 2 -8 -14 -5 -22 5 -22 4 4 -11 16 -9 25 -21 21 -27 -5
-8 -1 -9 12 -4 41 17 54 17 76 2 21 -15 21 -16 3 -17 -18 0 -18 -1 3 -9 12 -5
29 -7 37 -4 11 5 13 2 9 -11 -5 -12 -2 -16 12 -14 38 6 107 -32 90 -49 -4 -3
-11 0 -16 8 -5 8 -12 11 -17 7 -10 -11 18 -28 35 -22 18 6 47 -16 47 -35 0 -8
17 -23 37 -32 43 -20 63 -44 28 -33 -20 6 -21 5 -9 -7 7 -8 20 -15 29 -14 8 1
14 -5 12 -13 -4 -17 18 -42 30 -35 11 7 58 -34 58 -50 0 -6 -12 2 -25 17 -14
15 -25 23 -25 17 0 -7 15 -27 33 -45 18 -18 31 -37 30 -42 -2 -6 4 -16 13 -24
15 -12 16 -11 10 11 -6 21 -5 22 4 7 7 -10 9 -24 7 -31 -3 -7 -1 -19 5 -27 8
-11 9 -10 4 4 -3 9 -1 17 4 17 6 0 10 -9 10 -19 0 -11 6 -22 13 -25 10 -5 10
-7 0 -12 -20 -9 -15 -26 5 -20 14 5 20 -3 32 -42 8 -26 13 -55 11 -64 -1 -13
2 -16 13 -12 24 9 19 -14 -6 -27 -19 -10 -19 -12 -5 -21 10 -5 17 -16 17 -23
0 -8 7 -15 15 -15 9 0 15 -9 15 -25 0 -18 -4 -23 -15 -19 -20 8 -19 -10 2 -27
11 -10 14 -10 9 -1 -4 6 -2 12 3 12 6 0 11 -10 12 -22 1 -27 4 -48 14 -77 3
-11 4 -21 1 -21 -3 0 -12 21 -21 48 -15 46 -15 46 -9 8 3 -22 5 -67 5 -100 0
-33 5 -66 11 -74 8 -9 8 -16 0 -24 -17 -17 -16 -44 1 -29 11 8 13 6 11 -12 -1
-12 -3 -25 -3 -29 -1 -5 -8 -8 -16 -8 -10 0 -15 -9 -14 -27 0 -25 1 -26 9 -8
7 17 9 16 9 -10 1 -40 -27 -149 -40 -153 -5 -2 -7 -8 -4 -12 3 -5 -2 -27 -11
-49 -12 -30 -20 -38 -32 -34 -13 5 -14 3 -5 -7 7 -7 8 -19 3 -29 -4 -9 -13
-28 -21 -43 -7 -16 -17 -28 -22 -28 -5 0 -4 7 3 15 6 8 10 20 8 27 -3 7 -12
-2 -22 -21 -12 -22 -14 -36 -8 -40 7 -4 3 -16 -8 -31 -18 -23 -20 -23 -20 -5
l-1 20 -8 -20 c-5 -11 -6 -25 -4 -31 2 -6 -5 -14 -16 -17 -12 -3 -21 -10 -21
-17 0 -6 5 -8 11 -4 7 4 7 -1 -1 -15 -10 -19 -14 -20 -27 -9 -14 11 -15 10 -9
-8 9 -29 -36 -74 -66 -66 -14 3 -19 1 -14 -6 4 -7 1 -12 -9 -12 -9 0 -13 -5
-10 -10 3 -6 1 -10 -6 -10 -6 0 -19 -8 -28 -18 -9 -11 -27 -24 -39 -31 -13 -7
-21 -15 -18 -18 3 -3 12 0 21 7 9 7 18 10 22 6 7 -7 10 -5 -47 -43 -65 -44
-130 -76 -124 -61 2 7 23 21 45 32 22 10 38 20 36 22 -9 9 -77 -28 -112 -60
-20 -20 -47 -38 -59 -41 -11 -4 -35 -13 -53 -21 -47 -21 -93 -29 -93 -15 0 6
-8 11 -17 11 -15 0 -16 -2 -3 -10 8 -5 11 -12 7 -17 -4 -4 -17 -1 -29 6 -18
11 -20 11 -15 -1 4 -11 -1 -14 -20 -10 -18 3 -21 7 -11 13 9 6 6 9 -11 9 -17
0 -22 -4 -19 -17 4 -13 -1 -18 -19 -18 -12 0 -23 6 -23 13 0 17 -166 17 -173
0 -4 -9 -8 -10 -14 -2 -11 16 -81 37 -98 30 -8 -3 -17 -1 -20 4 -4 6 -16 10
-28 10 -18 0 -19 -2 -7 -10 11 -7 5 -8 -20 -4 -53 10 -72 23 -32 24 17 0 32 5
32 11 0 5 -4 8 -8 5 -4 -3 -24 -1 -43 4 -18 5 -45 12 -59 15 -24 6 -24 6 -6
-9 23 -19 17 -20 -18 -4 -18 8 -23 15 -16 23 7 8 -1 16 -25 28 -35 17 -50 7
-17 -12 9 -6 13 -10 7 -10 -16 0 -49 28 -42 35 4 4 -3 14 -15 22 -16 12 -23
12 -26 4 -6 -20 -22 -14 -22 9 0 11 -4 17 -10 14 -15 -9 -45 11 -45 32 0 12
-10 20 -30 24 -16 4 -22 7 -12 8 15 1 13 5 -10 25 -15 13 -30 22 -33 20 -2 -3
2 -9 10 -14 8 -5 12 -11 9 -15 -7 -6 -59 37 -59 48 0 5 10 5 22 1 20 -6 21 -5
6 10 -9 9 -23 14 -31 11 -7 -3 -20 1 -27 10 -11 13 -10 14 4 9 9 -3 16 -2 16
3 0 15 -23 33 -41 33 -21 0 -45 26 -29 32 6 2 8 11 5 21 -8 19 -25 23 -25 5 0
-6 -13 8 -30 30 -32 44 -35 52 -22 52 5 0 17 -16 27 -35 11 -19 21 -32 23 -30
7 7 -48 95 -59 95 -6 0 -9 6 -6 14 3 8 -3 31 -14 52 -17 34 -19 36 -20 14 l0
-25 -10 25 c-6 13 -15 28 -22 32 -6 4 -8 10 -4 14 3 4 13 1 22 -6 19 -15 19
-1 1 23 -11 14 -15 15 -20 5 -3 -7 -4 3 -1 22 4 26 3 30 -4 15 -7 -16 -10 -17
-14 -5 -13 37 -14 60 -4 60 6 0 2 7 -9 15 -10 8 -15 15 -10 15 5 0 3 7 -4 15
-11 13 -11 18 0 28 10 10 11 9 5 -3 -6 -10 -5 -12 3 -5 15 14 3 65 -16 65 -12
0 -13 3 -4 12 7 7 12 19 11 28 0 10 -3 9 -8 -5 -7 -17 -8 -17 -13 8 -3 15 -2
29 2 32 4 2 6 26 5 52 -1 31 -1 35 2 11 6 -56 18 -46 16 12 -1 45 1 49 15 38
13 -12 14 -10 3 9 -7 14 -17 20 -26 17 -11 -5 -15 1 -14 22 1 27 1 28 8 5 6
-21 8 -22 20 -7 10 11 10 16 2 16 -7 0 -10 4 -6 9 3 5 1 12 -5 16 -5 3 -10 16
-9 28 1 20 2 20 8 -3 9 -33 20 -15 27 46 5 41 3 46 -10 35 -12 -10 -14 -9 -9
9 3 11 8 19 10 16 9 -8 33 21 33 40 0 20 50 134 66 151 7 7 16 27 19 45 4 18
15 38 24 45 14 11 14 14 1 24 -11 8 -12 12 -2 16 6 2 12 11 12 20 0 22 26 44
45 37 13 -5 15 -2 9 20 -5 21 -3 26 14 26 24 0 65 31 93 73 12 18 16 26 9 20
-32 -30 -28 -10 4 22 24 23 41 32 53 28 10 -4 14 -2 10 4 -8 13 75 83 97 83 9
0 16 5 16 10 0 6 15 10 33 9 17 0 50 7 72 16 22 8 48 18 58 22 26 8 21 25 -5
18 -16 -5 -20 -4 -13 3 6 6 22 14 38 17 22 6 26 4 21 -8 -4 -12 -1 -14 15 -10
12 3 17 11 14 19 -3 8 0 14 6 14 6 0 11 -4 11 -10 0 -5 5 -10 11 -10 6 0 9 7
5 15 -3 10 1 15 12 15 9 0 28 3 42 6 20 5 22 4 10 -6 -12 -10 -10 -11 10 -6
14 3 45 6 70 7 25 0 39 3 32 6 -6 2 -9 9 -6 15 4 6 38 8 93 4 47 -3 98 -6 114
-6z m-1381 -212 c-9 -9 -15 -9 -24 1 -11 10 -10 11 5 6 10 -5 17 -2 17 6 0 7
3 9 7 6 4 -4 1 -13 -5 -19z m503 -117 c-16 -16 -32 -26 -35 -24 -6 5 47 53 58
53 4 0 -6 -13 -23 -29z m2105 9 c0 -5 -2 -10 -4 -10 -3 0 -8 5 -11 10 -3 6 -1
10 4 10 6 0 11 -4 11 -10z m-2770 -190 c0 -5 -5 -10 -11 -10 -5 0 -7 5 -4 10
3 6 8 10 11 10 2 0 4 -4 4 -10z m503 -42 c-3 -16 -9 -28 -14 -28 -4 0 -3 14 3
31 12 36 18 35 11 -3z m-53 -106 c0 -5 -7 -17 -15 -28 -14 -18 -14 -17 -4 9
12 27 19 34 19 19z m-30 -98 c0 -8 -5 -12 -10 -9 -6 4 -8 11 -5 16 9 14 15 11
15 -7z m-505 -74 c3 -5 -1 -10 -9 -10 -9 0 -16 5 -16 10 0 6 4 10 9 10 6 0 13
-4 16 -10z m3022 -12 c-3 -8 -6 -5 -6 6 -1 11 2 17 5 13 3 -3 4 -12 1 -19z
m-3030 -60 c-3 -7 -5 -2 -5 12 0 14 2 19 5 13 2 -7 2 -19 0 -25z m3010 0 c-3
-8 -6 -5 -6 6 -1 11 2 17 5 13 3 -3 4 -12 1 -19z m-3022 -107 c3 -5 1 -12 -5
-16 -5 -3 -10 1 -10 9 0 18 6 21 15 7z m2583 -50 c-15 -5 -19 4 -11 24 6 18 7
18 13 -1 4 -10 3 -21 -2 -23z m479 -33 c-3 -8 -6 -5 -6 6 -1 11 2 17 5 13 3
-3 4 -12 1 -19z m-482 2 c3 -5 1 -10 -4 -10 -6 0 -11 5 -11 10 0 6 2 10 4 10
3 0 8 -4 11 -10z m-2588 -62 c-3 -7 -5 -2 -5 12 0 14 2 19 5 13 2 -7 2 -19 0
-25z m3073 -2 c0 -3 -4 -8 -10 -11 -5 -3 -10 -1 -10 4 0 6 5 11 10 11 6 0 10
-2 10 -4z m-3030 -111 c0 -8 -4 -15 -10 -15 -5 0 -7 7 -4 15 4 8 8 15 10 15 2
0 4 -7 4 -15z m10 -44 c0 -15 -31 -42 -41 -36 -15 10 -10 28 6 21 9 -3 18 1
21 9 7 17 14 20 14 6z m2990 -56 c0 -8 -4 -15 -10 -15 -5 0 -7 7 -4 15 4 8 8
15 10 15 2 0 4 -7 4 -15z m-10 -60 c0 -8 -2 -15 -4 -15 -2 0 -6 7 -10 15 -3 8
-1 15 4 15 6 0 10 -7 10 -15z m-2440 -123 c0 -15 -2 -15 -10 -2 -13 20 -13 33
0 25 6 -3 10 -14 10 -23z m2394 -37 c-4 -8 -8 -15 -10 -15 -2 0 -4 7 -4 15 0
8 4 15 10 15 5 0 7 -7 4 -15z m-42 -97 c-7 -7 -12 -8 -12 -2 0 14 12 26 19 19
2 -3 -1 -11 -7 -17z m-37 -18 c-3 -5 -12 -10 -18 -10 -7 0 -6 4 3 10 19 12 23
12 15 0z m-2168 -56 c-3 -3 -12 -4 -19 -1 -8 3 -5 6 6 6 11 1 17 -2 13 -5z
m-567 -20 c0 -8 -4 -12 -10 -9 -5 3 -10 10 -10 16 0 5 5 9 10 9 6 0 10 -7 10
-16z m64 -72 c-6 -4 -14 -14 -17 -22 -4 -10 -6 -8 -6 7 -1 12 5 23 12 26 16 6
24 -2 11 -11z m1971 -52 c-10 -11 -23 -20 -29 -20 -6 1 0 10 13 20 30 26 39
26 16 0z m-1941 -36 c9 -24 2 -26 -12 -4 -7 11 -8 20 -3 20 5 0 12 -7 15 -16z
m76 -111 c0 -12 -2 -12 -15 1 -8 8 -15 17 -15 20 0 3 7 3 15 0 8 -4 15 -13 15
-21z m2307 -69 c-3 -3 -12 -4 -19 -1 -8 3 -5 6 6 6 11 1 17 -2 13 -5z m-2237
-8 c0 -3 -4 -8 -10 -11 -5 -3 -10 -1 -10 4 0 6 5 11 10 11 6 0 10 -2 10 -4z
m1125 -16 c-3 -5 -12 -10 -18 -10 -7 0 -6 4 3 10 19 12 23 12 15 0z m35 6 c0
-3 -4 -8 -10 -11 -5 -3 -10 -1 -10 4 0 6 5 11 10 11 6 0 10 -2 10 -4z m1034
-15 c-10 -10 -21 -16 -24 -14 -3 3 4 11 14 19 28 20 33 17 10 -5z m36 -21 c0
-5 -7 -10 -16 -10 -8 0 -12 5 -9 10 3 6 10 10 16 10 5 0 9 -4 9 -10z m-40 -20
c0 -5 -4 -10 -10 -10 -5 0 -10 5 -10 10 0 6 5 10 10 10 6 0 10 -4 10 -10z
m-2070 -51 c17 -30 6 -34 -14 -4 -9 14 -12 25 -7 25 6 0 15 -9 21 -21z m1780
-139 c-8 -5 -19 -10 -25 -10 -5 0 -3 5 5 10 8 5 20 10 25 10 6 0 3 -5 -5 -10z
m-1433 -102 c-3 -8 -6 -5 -6 6 -1 11 2 17 5 13 3 -3 4 -12 1 -19z m145 -70
c-7 -7 -12 -8 -12 -2 0 14 12 26 19 19 2 -3 -1 -11 -7 -17z m988 2 c-8 -5 -22
-9 -30 -9 -10 0 -8 3 5 9 27 12 43 12 25 0z m-110 -10 c0 -5 -2 -10 -4 -10 -3
0 -8 5 -11 10 -3 6 -1 10 4 10 6 0 11 -4 11 -10z m-355 -40 c3 -5 1 -10 -4
-10 -6 0 -11 5 -11 10 0 6 2 10 4 10 3 0 8 -4 11 -10z"/>
<path d="M2577 3699 c7 -7 15 -10 18 -7 3 3 -2 9 -12 12 -14 6 -15 5 -6 -5z"/>
<path d="M2668 3693 c6 -2 18 -2 25 0 6 3 1 5 -13 5 -14 0 -19 -2 -12 -5z"/>
<path d="M3058 3603 c7 -3 16 -2 19 1 4 3 -2 6 -13 5 -11 0 -14 -3 -6 -6z"/>
<path d="M2114 3565 c-10 -8 -14 -15 -8 -15 6 0 17 7 24 15 16 19 9 19 -16 0z"/>
<path d="M2056 3535 c-8 -8 -19 -15 -25 -15 -6 0 -11 -5 -11 -11 0 -6 3 -9 8
-7 48 24 62 32 62 40 0 13 -17 9 -34 -7z"/>
<path d="M3258 3473 c7 -3 16 -2 19 1 4 3 -2 6 -13 5 -11 0 -14 -3 -6 -6z"/>
<path d="M1960 3455 c-7 -9 -8 -15 -2 -15 5 0 12 7 16 15 3 8 4 15 2 15 -2 0
-9 -7 -16 -15z"/>
<path d="M1820 3320 c0 -5 5 -10 11 -10 5 0 7 5 4 10 -3 6 -8 10 -11 10 -2 0
-4 -4 -4 -10z"/>
<path d="M1777 3273 c-4 -3 -7 -13 -7 -21 0 -12 3 -12 15 -2 8 7 15 16 15 21
0 11 -14 12 -23 2z"/>
<path d="M1720 3089 c0 -5 5 -7 10 -4 6 3 10 8 10 11 0 2 -4 4 -10 4 -5 0 -10
-5 -10 -11z"/>
<path d="M3576 3055 c4 -8 8 -15 10 -15 2 0 4 7 4 15 0 8 -4 15 -10 15 -5 0
-7 -7 -4 -15z"/>
<path d="M3590 3020 c0 -5 5 -10 11 -10 5 0 7 5 4 10 -3 6 -8 10 -11 10 -2 0
-4 -4 -4 -10z"/>
<path d="M3630 2880 c0 -5 5 -10 10 -10 6 0 10 5 10 10 0 6 -4 10 -10 10 -5 0
-10 -4 -10 -10z"/>
<path d="M3632 2700 c0 -19 2 -27 5 -17 2 9 2 25 0 35 -3 9 -5 1 -5 -18z"/>
<path d="M1580 2579 c0 -5 5 -7 10 -4 6 3 10 8 10 11 0 2 -4 4 -10 4 -5 0 -10
-5 -10 -11z"/>
<path d="M3620 2340 c0 -5 5 -10 11 -10 5 0 7 5 4 10 -3 6 -8 10 -11 10 -2 0
-4 -4 -4 -10z"/>
<path d="M3595 2260 c-3 -5 -1 -10 4 -10 6 0 11 5 11 10 0 6 -2 10 -4 10 -3 0
-8 -4 -11 -10z"/>
<path d="M1810 1990 c0 -5 5 -10 11 -10 5 0 7 5 4 10 -3 6 -8 10 -11 10 -2 0
-4 -4 -4 -10z"/>
<path d="M3348 1928 c-10 -10 -14 -18 -9 -18 10 0 36 29 30 34 -2 1 -12 -6
-21 -16z"/>
<path d="M3386 1923 c-6 -14 -5 -15 5 -6 7 7 10 15 7 18 -3 3 -9 -2 -12 -12z"/>
<path d="M3030 1669 c0 -5 5 -7 10 -4 6 3 10 8 10 11 0 2 -4 4 -10 4 -5 0 -10
-5 -10 -11z"/>
<path d="M2908 1613 c7 -3 16 -2 19 1 4 3 -2 6 -13 5 -11 0 -14 -3 -6 -6z"/>
<path d="M2790 4210 c0 -5 5 -10 11 -10 5 0 7 5 4 10 -3 6 -8 10 -11 10 -2 0
-4 -4 -4 -10z"/>
<path d="M2370 4189 c0 -5 5 -7 10 -4 6 3 10 8 10 11 0 2 -4 4 -10 4 -5 0 -10
-5 -10 -11z"/>
<path d="M2055 4110 c-3 -5 -2 -10 4 -10 5 0 13 5 16 10 3 6 2 10 -4 10 -5 0
-13 -4 -16 -10z"/>
<path d="M3230 4090 c0 -6 7 -10 15 -10 8 0 15 2 15 4 0 2 -7 6 -15 10 -8 3
-15 1 -15 -4z"/>
<path d="M1865 4070 c-3 -5 1 -10 10 -10 9 0 13 5 10 10 -3 6 -8 10 -10 10 -2
0 -7 -4 -10 -10z"/>
<path d="M3590 3910 c0 -5 5 -10 10 -10 6 0 10 5 10 10 0 6 -4 10 -10 10 -5 0
-10 -4 -10 -10z"/>
<path d="M3802 3664 c10 -10 20 -16 22 -13 3 3 -5 11 -17 18 -21 13 -21 12 -5
-5z"/>
<path d="M1230 3431 c0 -6 5 -13 10 -16 6 -3 10 1 10 9 0 9 -4 16 -10 16 -5 0
-10 -4 -10 -9z"/>
<path d="M4035 3350 c-3 -5 -1 -10 4 -10 6 0 11 5 11 10 0 6 -2 10 -4 10 -3 0
-8 -4 -11 -10z"/>
<path d="M4160 2996 c0 -17 16 -30 23 -19 3 5 -1 14 -9 21 -12 10 -14 10 -14
-2z"/>
<path d="M4180 2924 c0 -8 5 -12 10 -9 6 3 10 10 10 16 0 5 -4 9 -10 9 -5 0
-10 -7 -10 -16z"/>
<path d="M1051 2864 c0 -11 3 -14 6 -6 3 7 2 16 -1 19 -3 4 -6 -2 -5 -13z"/>
<path d="M4212 2630 c0 -19 2 -27 5 -17 2 9 2 25 0 35 -3 9 -5 1 -5 -18z"/>
<path d="M1035 2630 c3 -5 8 -10 11 -10 2 0 4 5 4 10 0 6 -5 10 -11 10 -5 0
-7 -4 -4 -10z"/>
<path d="M1037 2579 c7 -7 15 -10 18 -7 3 3 -2 9 -12 12 -14 6 -15 5 -6 -5z"/>
<path d="M4190 2550 c0 -5 4 -10 9 -10 6 0 13 5 16 10 3 6 -1 10 -9 10 -9 0
-16 -4 -16 -10z"/>
<path d="M1097 2320 c3 -11 7 -20 9 -20 2 0 4 9 4 20 0 11 -4 20 -9 20 -5 0
-7 -9 -4 -20z"/>
<path d="M1215 1910 c3 -5 8 -10 11 -10 2 0 4 5 4 10 0 6 -5 10 -11 10 -5 0
-7 -4 -4 -10z"/>
<path d="M1330 1720 c0 -5 5 -10 11 -10 5 0 7 5 4 10 -3 6 -8 10 -11 10 -2 0
-4 -4 -4 -10z"/>
<path d="M3605 1431 c-3 -5 -1 -12 5 -16 5 -3 10 1 10 9 0 18 -6 21 -15 7z"/>
<path d="M1740 1321 c-14 -4 -20 -10 -14 -14 6 -3 20 0 30 8 21 16 20 16 -16
6z"/>
<path d="M3518 1313 c7 -3 16 -2 19 1 4 3 -2 6 -13 5 -11 0 -14 -3 -6 -6z"/>
<path d="M2005 1190 c3 -5 10 -10 16 -10 5 0 9 5 9 10 0 6 -7 10 -16 10 -8 0
-12 -4 -9 -10z"/>
<path d="M1990 1165 c7 -9 15 -13 17 -11 7 7 -7 26 -19 26 -6 0 -6 -6 2 -15z"/>
<path d="M3206 1151 c-11 -4 -15 -10 -10 -13 5 -2 20 1 34 8 26 14 8 18 -24 5z"/>
<path d="M2960 1110 c0 -5 5 -10 11 -10 5 0 7 5 4 10 -3 6 -8 10 -11 10 -2 0
-4 -4 -4 -10z"/>
<path d="M3080 1100 c0 -5 5 -10 10 -10 6 0 10 5 10 10 0 6 -4 10 -10 10 -5 0
-10 -4 -10 -10z"/>
</g>
</svg>
